<svg width="30" height="30" viewBox="0 0 30 30" fill="none" xmlns="http://www.w3.org/2000/svg">
<circle cx="15" cy="15" r="15" fill="none"/>
<path d="M22.05 7.91C21.1332 6.98392 20.0412 6.24967 18.8377 5.75005C17.6341 5.25043 16.3432 4.99546 15.04 5C9.58005 5 5.13005 9.45 5.13005 14.91C5.13005 16.66 5.59005 18.36 6.45005 19.86L5.05005 25L10.3 23.62C11.75 24.41 13.38 24.83 15.04 24.83C20.5 24.83 24.9501 20.38 24.9501 14.92C24.9501 12.27 23.92 9.78 22.05 7.91ZM15.04 23.15C13.56 23.15 12.11 22.75 10.84 22L10.54 21.82L7.42005 22.64L8.25005 19.6L8.05005 19.29C7.2278 17.977 6.79119 16.4592 6.79005 14.91C6.79005 10.37 10.49 6.67 15.03 6.67C17.23 6.67 19.3 7.53 20.85 9.09C21.6175 9.85396 22.2257 10.7627 22.6394 11.7634C23.0531 12.7642 23.2641 13.8371 23.26 14.92C23.28 19.46 19.58 23.15 15.04 23.15ZM19.56 16.99C19.31 16.87 18.09 16.27 17.87 16.18C17.64 16.1 17.48 16.06 17.31 16.3C17.14 16.55 16.67 17.11 16.53 17.27C16.39 17.44 16.24 17.46 15.99 17.33C15.74 17.21 14.94 16.94 14 16.1C13.26 15.44 12.77 14.63 12.62 14.38C12.48 14.13 12.6 14 12.73 13.87C12.84 13.76 12.98 13.58 13.1 13.44C13.22 13.3 13.27 13.19 13.35 13.03C13.43 12.86 13.39 12.72 13.33 12.6C13.27 12.48 12.77 11.26 12.57 10.76C12.37 10.28 12.16 10.34 12.01 10.33H11.53C11.36 10.33 11.1 10.39 10.87 10.64C10.65 10.89 10.01 11.49 10.01 12.71C10.01 13.93 10.9 15.11 11.02 15.27C11.14 15.44 12.77 17.94 15.25 19.01C15.84 19.27 16.3 19.42 16.66 19.53C17.25 19.72 17.79 19.69 18.22 19.63C18.7 19.56 19.69 19.03 19.89 18.45C20.1 17.87 20.1 17.38 20.03 17.27C19.96 17.16 19.81 17.11 19.56 16.99Z" fill="white"/>
</svg>
